<svg xmlns="http://www.w3.org/2000/svg" xml:space="preserve" xmlns:xlink="http://www.w3.org/1999/xlink" style="max-width: 100%;height: auto;" width="1063.75" height="1241.0416666667" viewBox="0 0 1063.75 1241.0416666667">
<rect width="984.85520833333" height="984.85520833333" fill="#ffffff" x="44.322916666667" y="44.322916666667"></rect>
<g transform="scale(44.322916666667)" fill="#0d6efd"><path d="M22.7,0H1.3C0.6,0,0,0.6,0,1.3v25.3C0,27.4,0.6,28,1.3,28h21.3c0.7,0,1.3-0.6,1.3-1.3V1.3C24,0.6,23.4,0,22.7,0 z M23,22c0,0.6-0.5,1-1,1H2c-0.6,0-1-0.5-1-1V2c0-0.6,0.5-1,1-1h20c0.6,0,1,0.5,1,1V22z"></path></g>
<g fill="#0d6efd">
<g transform="translate(290.375,106.375) scale(3.9483333333333)"><rect width="6" height="6"></rect></g>
<g transform="translate(313.375,106.375) scale(3.9483333333333)"><rect width="6" height="6"></rect></g>
<g transform="translate(405.375,106.375) scale(3.9483333333333)"><rect width="6" height="6"></rect></g>
<g transform="translate(497.375,106.375) scale(3.9483333333333)"><rect width="6" height="6"></rect></g>
<g transform="translate(520.375,106.375) scale(3.9483333333333)"><rect width="6" height="6"></rect></g>
<g transform="translate(566.375,106.375) scale(3.9483333333333)"><rect width="6" height="6"></rect></g>
<g transform="translate(658.375,106.375) scale(3.9483333333333)"><rect width="6" height="6"></rect></g>
<g transform="translate(681.375,106.375) scale(3.9483333333333)"><rect width="6" height="6"></rect></g>
<g transform="translate(750.375,106.375) scale(3.9483333333333)"><rect width="6" height="6"></rect></g>
<g transform="translate(290.375,129.375) scale(3.9483333333333)"><rect width="6" height="6"></rect></g>
<g transform="translate(474.375,129.375) scale(3.9483333333333)"><rect width="6" height="6"></rect></g>
<g transform="translate(497.375,129.375) scale(3.9483333333333)"><rect width="6" height="6"></rect></g>
<g transform="translate(520.375,129.375) scale(3.9483333333333)"><rect width="6" height="6"></rect></g>
<g transform="translate(543.375,129.375) scale(3.9483333333333)"><rect width="6" height="6"></rect></g>
<g transform="translate(566.375,129.375) scale(3.9483333333333)"><rect width="6" height="6"></rect></g>
<g transform="translate(589.375,129.375) scale(3.9483333333333)"><rect width="6" height="6"></rect></g>
<g transform="translate(612.375,129.375) scale(3.9483333333333)"><rect width="6" height="6"></rect></g>
<g transform="translate(635.375,129.375) scale(3.9483333333333)"><rect width="6" height="6"></rect></g>
<g transform="translate(681.375,129.375) scale(3.9483333333333)"><rect width="6" height="6"></rect></g>
<g transform="translate(704.375,129.375) scale(3.9483333333333)"><rect width="6" height="6"></rect></g>
<g transform="translate(727.375,129.375) scale(3.9483333333333)"><rect width="6" height="6"></rect></g>
<g transform="translate(750.375,129.375) scale(3.9483333333333)"><rect width="6" height="6"></rect></g>
<g transform="translate(290.375,152.375) scale(3.9483333333333)"><rect width="6" height="6"></rect></g>
<g transform="translate(313.375,152.375) scale(3.9483333333333)"><rect width="6" height="6"></rect></g>
<g transform="translate(359.375,152.375) scale(3.9483333333333)"><rect width="6" height="6"></rect></g>
<g transform="translate(382.375,152.375) scale(3.9483333333333)"><rect width="6" height="6"></rect></g>
<g transform="translate(497.375,152.375) scale(3.9483333333333)"><rect width="6" height="6"></rect></g>
<g transform="translate(520.375,152.375) scale(3.9483333333333)"><rect width="6" height="6"></rect></g>
<g transform="translate(566.375,152.375) scale(3.9483333333333)"><rect width="6" height="6"></rect></g>
<g transform="translate(612.375,152.375) scale(3.9483333333333)"><rect width="6" height="6"></rect></g>
<g transform="translate(635.375,152.375) scale(3.9483333333333)"><rect width="6" height="6"></rect></g>
<g transform="translate(658.375,152.375) scale(3.9483333333333)"><rect width="6" height="6"></rect></g>
<g transform="translate(727.375,152.375) scale(3.9483333333333)"><rect width="6" height="6"></rect></g>
<g transform="translate(750.375,152.375) scale(3.9483333333333)"><rect width="6" height="6"></rect></g>
<g transform="translate(313.375,175.375) scale(3.9483333333333)"><rect width="6" height="6"></rect></g>
<g transform="translate(336.375,175.375) scale(3.9483333333333)"><rect width="6" height="6"></rect></g>
<g transform="translate(359.375,175.375) scale(3.9483333333333)"><rect width="6" height="6"></rect></g>
<g transform="translate(451.375,175.375) scale(3.9483333333333)"><rect width="6" height="6"></rect></g>
<g transform="translate(474.375,175.375) scale(3.9483333333333)"><rect width="6" height="6"></rect></g>
<g transform="translate(520.375,175.375) scale(3.9483333333333)"><rect width="6" height="6"></rect></g>
<g transform="translate(589.375,175.375) scale(3.9483333333333)"><rect width="6" height="6"></rect></g>
<g transform="translate(635.375,175.375) scale(3.9483333333333)"><rect width="6" height="6"></rect></g>
<g transform="translate(658.375,175.375) scale(3.9483333333333)"><rect width="6" height="6"></rect></g>
<g transform="translate(681.375,175.375) scale(3.9483333333333)"><rect width="6" height="6"></rect></g>
<g transform="translate(704.375,175.375) scale(3.9483333333333)"><rect width="6" height="6"></rect></g>
<g transform="translate(727.375,175.375) scale(3.9483333333333)"><rect width="6" height="6"></rect></g>
<g transform="translate(313.375,198.375) scale(3.9483333333333)"><rect width="6" height="6"></rect></g>
<g transform="translate(359.375,198.375) scale(3.9483333333333)"><rect width="6" height="6"></rect></g>
<g transform="translate(405.375,198.375) scale(3.9483333333333)"><rect width="6" height="6"></rect></g>
<g transform="translate(428.375,198.375) scale(3.9483333333333)"><rect width="6" height="6"></rect></g>
<g transform="translate(451.375,198.375) scale(3.9483333333333)"><rect width="6" height="6"></rect></g>
<g transform="translate(497.375,198.375) scale(3.9483333333333)"><rect width="6" height="6"></rect></g>
<g transform="translate(520.375,198.375) scale(3.9483333333333)"><rect width="6" height="6"></rect></g>
<g transform="translate(566.375,198.375) scale(3.9483333333333)"><rect width="6" height="6"></rect></g>
<g transform="translate(589.375,198.375) scale(3.9483333333333)"><rect width="6" height="6"></rect></g>
<g transform="translate(612.375,198.375) scale(3.9483333333333)"><rect width="6" height="6"></rect></g>
<g transform="translate(658.375,198.375) scale(3.9483333333333)"><rect width="6" height="6"></rect></g>
<g transform="translate(681.375,198.375) scale(3.9483333333333)"><rect width="6" height="6"></rect></g>
<g transform="translate(290.375,221.375) scale(3.9483333333333)"><rect width="6" height="6"></rect></g>
<g transform="translate(313.375,221.375) scale(3.9483333333333)"><rect width="6" height="6"></rect></g>
<g transform="translate(336.375,221.375) scale(3.9483333333333)"><rect width="6" height="6"></rect></g>
<g transform="translate(405.375,221.375) scale(3.9483333333333)"><rect width="6" height="6"></rect></g>
<g transform="translate(451.375,221.375) scale(3.9483333333333)"><rect width="6" height="6"></rect></g>
<g transform="translate(474.375,221.375) scale(3.9483333333333)"><rect width="6" height="6"></rect></g>
<g transform="translate(566.375,221.375) scale(3.9483333333333)"><rect width="6" height="6"></rect></g>
<g transform="translate(589.375,221.375) scale(3.9483333333333)"><rect width="6" height="6"></rect></g>
<g transform="translate(658.375,221.375) scale(3.9483333333333)"><rect width="6" height="6"></rect></g>
<g transform="translate(681.375,221.375) scale(3.9483333333333)"><rect width="6" height="6"></rect></g>
<g transform="translate(704.375,221.375) scale(3.9483333333333)"><rect width="6" height="6"></rect></g>
<g transform="translate(727.375,221.375) scale(3.9483333333333)"><rect width="6" height="6"></rect></g>
<g transform="translate(750.375,221.375) scale(3.9483333333333)"><rect width="6" height="6"></rect></g>
<g transform="translate(290.375,244.375) scale(3.9483333333333)"><rect width="6" height="6"></rect></g>
<g transform="translate(336.375,244.375) scale(3.9483333333333)"><rect width="6" height="6"></rect></g>
<g transform="translate(382.375,244.375) scale(3.9483333333333)"><rect width="6" height="6"></rect></g>
<g transform="translate(428.375,244.375) scale(3.9483333333333)"><rect width="6" height="6"></rect></g>
<g transform="translate(474.375,244.375) scale(3.9483333333333)"><rect width="6" height="6"></rect></g>
<g transform="translate(520.375,244.375) scale(3.9483333333333)"><rect width="6" height="6"></rect></g>
<g transform="translate(566.375,244.375) scale(3.9483333333333)"><rect width="6" height="6"></rect></g>
<g transform="translate(612.375,244.375) scale(3.9483333333333)"><rect width="6" height="6"></rect></g>
<g transform="translate(658.375,244.375) scale(3.9483333333333)"><rect width="6" height="6"></rect></g>
<g transform="translate(704.375,244.375) scale(3.9483333333333)"><rect width="6" height="6"></rect></g>
<g transform="translate(750.375,244.375) scale(3.9483333333333)"><rect width="6" height="6"></rect></g>
<g transform="translate(290.375,267.375) scale(3.9483333333333)"><rect width="6" height="6"></rect></g>
<g transform="translate(313.375,267.375) scale(3.9483333333333)"><rect width="6" height="6"></rect></g>
<g transform="translate(382.375,267.375) scale(3.9483333333333)"><rect width="6" height="6"></rect></g>
<g transform="translate(474.375,267.375) scale(3.9483333333333)"><rect width="6" height="6"></rect></g>
<g transform="translate(520.375,267.375) scale(3.9483333333333)"><rect width="6" height="6"></rect></g>
<g transform="translate(543.375,267.375) scale(3.9483333333333)"><rect width="6" height="6"></rect></g>
<g transform="translate(566.375,267.375) scale(3.9483333333333)"><rect width="6" height="6"></rect></g>
<g transform="translate(658.375,267.375) scale(3.9483333333333)"><rect width="6" height="6"></rect></g>
<g transform="translate(704.375,267.375) scale(3.9483333333333)"><rect width="6" height="6"></rect></g>
<g transform="translate(750.375,267.375) scale(3.9483333333333)"><rect width="6" height="6"></rect></g>
<g transform="translate(152.375,290.375) scale(3.9483333333333)"><rect width="6" height="6"></rect></g>
<g transform="translate(175.375,290.375) scale(3.9483333333333)"><rect width="6" height="6"></rect></g>
<g transform="translate(198.375,290.375) scale(3.9483333333333)"><rect width="6" height="6"></rect></g>
<g transform="translate(244.375,290.375) scale(3.9483333333333)"><rect width="6" height="6"></rect></g>
<g transform="translate(290.375,290.375) scale(3.9483333333333)"><rect width="6" height="6"></rect></g>
<g transform="translate(359.375,290.375) scale(3.9483333333333)"><rect width="6" height="6"></rect></g>
<g transform="translate(405.375,290.375) scale(3.9483333333333)"><rect width="6" height="6"></rect></g>
<g transform="translate(497.375,290.375) scale(3.9483333333333)"><rect width="6" height="6"></rect></g>
<g transform="translate(589.375,290.375) scale(3.9483333333333)"><rect width="6" height="6"></rect></g>
<g transform="translate(681.375,290.375) scale(3.9483333333333)"><rect width="6" height="6"></rect></g>
<g transform="translate(704.375,290.375) scale(3.9483333333333)"><rect width="6" height="6"></rect></g>
<g transform="translate(773.375,290.375) scale(3.9483333333333)"><rect width="6" height="6"></rect></g>
<g transform="translate(796.375,290.375) scale(3.9483333333333)"><rect width="6" height="6"></rect></g>
<g transform="translate(819.375,290.375) scale(3.9483333333333)"><rect width="6" height="6"></rect></g>
<g transform="translate(888.375,290.375) scale(3.9483333333333)"><rect width="6" height="6"></rect></g>
<g transform="translate(911.375,290.375) scale(3.9483333333333)"><rect width="6" height="6"></rect></g>
<g transform="translate(934.375,290.375) scale(3.9483333333333)"><rect width="6" height="6"></rect></g>
<g transform="translate(106.375,313.375) scale(3.9483333333333)"><rect width="6" height="6"></rect></g>
<g transform="translate(129.375,313.375) scale(3.9483333333333)"><rect width="6" height="6"></rect></g>
<g transform="translate(198.375,313.375) scale(3.9483333333333)"><rect width="6" height="6"></rect></g>
<g transform="translate(267.375,313.375) scale(3.9483333333333)"><rect width="6" height="6"></rect></g>
<g transform="translate(382.375,313.375) scale(3.9483333333333)"><rect width="6" height="6"></rect></g>
<g transform="translate(474.375,313.375) scale(3.9483333333333)"><rect width="6" height="6"></rect></g>
<g transform="translate(520.375,313.375) scale(3.9483333333333)"><rect width="6" height="6"></rect></g>
<g transform="translate(543.375,313.375) scale(3.9483333333333)"><rect width="6" height="6"></rect></g>
<g transform="translate(635.375,313.375) scale(3.9483333333333)"><rect width="6" height="6"></rect></g>
<g transform="translate(658.375,313.375) scale(3.9483333333333)"><rect width="6" height="6"></rect></g>
<g transform="translate(681.375,313.375) scale(3.9483333333333)"><rect width="6" height="6"></rect></g>
<g transform="translate(704.375,313.375) scale(3.9483333333333)"><rect width="6" height="6"></rect></g>
<g transform="translate(750.375,313.375) scale(3.9483333333333)"><rect width="6" height="6"></rect></g>
<g transform="translate(819.375,313.375) scale(3.9483333333333)"><rect width="6" height="6"></rect></g>
<g transform="translate(865.375,313.375) scale(3.9483333333333)"><rect width="6" height="6"></rect></g>
<g transform="translate(106.375,336.375) scale(3.9483333333333)"><rect width="6" height="6"></rect></g>
<g transform="translate(175.375,336.375) scale(3.9483333333333)"><rect width="6" height="6"></rect></g>
<g transform="translate(244.375,336.375) scale(3.9483333333333)"><rect width="6" height="6"></rect></g>
<g transform="translate(290.375,336.375) scale(3.9483333333333)"><rect width="6" height="6"></rect></g>
<g transform="translate(313.375,336.375) scale(3.9483333333333)"><rect width="6" height="6"></rect></g>
<g transform="translate(336.375,336.375) scale(3.9483333333333)"><rect width="6" height="6"></rect></g>
<g transform="translate(405.375,336.375) scale(3.9483333333333)"><rect width="6" height="6"></rect></g>
<g transform="translate(451.375,336.375) scale(3.9483333333333)"><rect width="6" height="6"></rect></g>
<g transform="translate(474.375,336.375) scale(3.9483333333333)"><rect width="6" height="6"></rect></g>
<g transform="translate(589.375,336.375) scale(3.9483333333333)"><rect width="6" height="6"></rect></g>
<g transform="translate(612.375,336.375) scale(3.9483333333333)"><rect width="6" height="6"></rect></g>
<g transform="translate(635.375,336.375) scale(3.9483333333333)"><rect width="6" height="6"></rect></g>
<g transform="translate(658.375,336.375) scale(3.9483333333333)"><rect width="6" height="6"></rect></g>
<g transform="translate(681.375,336.375) scale(3.9483333333333)"><rect width="6" height="6"></rect></g>
<g transform="translate(704.375,336.375) scale(3.9483333333333)"><rect width="6" height="6"></rect></g>
<g transform="translate(727.375,336.375) scale(3.9483333333333)"><rect width="6" height="6"></rect></g>
<g transform="translate(796.375,336.375) scale(3.9483333333333)"><rect width="6" height="6"></rect></g>
<g transform="translate(819.375,336.375) scale(3.9483333333333)"><rect width="6" height="6"></rect></g>
<g transform="translate(842.375,336.375) scale(3.9483333333333)"><rect width="6" height="6"></rect></g>
<g transform="translate(865.375,336.375) scale(3.9483333333333)"><rect width="6" height="6"></rect></g>
<g transform="translate(888.375,336.375) scale(3.9483333333333)"><rect width="6" height="6"></rect></g>
<g transform="translate(934.375,336.375) scale(3.9483333333333)"><rect width="6" height="6"></rect></g>
<g transform="translate(106.375,359.375) scale(3.9483333333333)"><rect width="6" height="6"></rect></g>
<g transform="translate(129.375,359.375) scale(3.9483333333333)"><rect width="6" height="6"></rect></g>
<g transform="translate(152.375,359.375) scale(3.9483333333333)"><rect width="6" height="6"></rect></g>
<g transform="translate(175.375,359.375) scale(3.9483333333333)"><rect width="6" height="6"></rect></g>
<g transform="translate(198.375,359.375) scale(3.9483333333333)"><rect width="6" height="6"></rect></g>
<g transform="translate(267.375,359.375) scale(3.9483333333333)"><rect width="6" height="6"></rect></g>
<g transform="translate(359.375,359.375) scale(3.9483333333333)"><rect width="6" height="6"></rect></g>
<g transform="translate(405.375,359.375) scale(3.9483333333333)"><rect width="6" height="6"></rect></g>
<g transform="translate(428.375,359.375) scale(3.9483333333333)"><rect width="6" height="6"></rect></g>
<g transform="translate(497.375,359.375) scale(3.9483333333333)"><rect width="6" height="6"></rect></g>
<g transform="translate(520.375,359.375) scale(3.9483333333333)"><rect width="6" height="6"></rect></g>
<g transform="translate(543.375,359.375) scale(3.9483333333333)"><rect width="6" height="6"></rect></g>
<g transform="translate(589.375,359.375) scale(3.9483333333333)"><rect width="6" height="6"></rect></g>
<g transform="translate(612.375,359.375) scale(3.9483333333333)"><rect width="6" height="6"></rect></g>
<g transform="translate(635.375,359.375) scale(3.9483333333333)"><rect width="6" height="6"></rect></g>
<g transform="translate(704.375,359.375) scale(3.9483333333333)"><rect width="6" height="6"></rect></g>
<g transform="translate(796.375,359.375) scale(3.9483333333333)"><rect width="6" height="6"></rect></g>
<g transform="translate(819.375,359.375) scale(3.9483333333333)"><rect width="6" height="6"></rect></g>
<g transform="translate(842.375,359.375) scale(3.9483333333333)"><rect width="6" height="6"></rect></g>
<g transform="translate(865.375,359.375) scale(3.9483333333333)"><rect width="6" height="6"></rect></g>
<g transform="translate(244.375,382.375) scale(3.9483333333333)"><rect width="6" height="6"></rect></g>
<g transform="translate(267.375,382.375) scale(3.9483333333333)"><rect width="6" height="6"></rect></g>
<g transform="translate(290.375,382.375) scale(3.9483333333333)"><rect width="6" height="6"></rect></g>
<g transform="translate(520.375,382.375) scale(3.9483333333333)"><rect width="6" height="6"></rect></g>
<g transform="translate(612.375,382.375) scale(3.9483333333333)"><rect width="6" height="6"></rect></g>
<g transform="translate(635.375,382.375) scale(3.9483333333333)"><rect width="6" height="6"></rect></g>
<g transform="translate(681.375,382.375) scale(3.9483333333333)"><rect width="6" height="6"></rect></g>
<g transform="translate(704.375,382.375) scale(3.9483333333333)"><rect width="6" height="6"></rect></g>
<g transform="translate(727.375,382.375) scale(3.9483333333333)"><rect width="6" height="6"></rect></g>
<g transform="translate(773.375,382.375) scale(3.9483333333333)"><rect width="6" height="6"></rect></g>
<g transform="translate(796.375,382.375) scale(3.9483333333333)"><rect width="6" height="6"></rect></g>
<g transform="translate(842.375,382.375) scale(3.9483333333333)"><rect width="6" height="6"></rect></g>
<g transform="translate(865.375,382.375) scale(3.9483333333333)"><rect width="6" height="6"></rect></g>
<g transform="translate(888.375,382.375) scale(3.9483333333333)"><rect width="6" height="6"></rect></g>
<g transform="translate(911.375,382.375) scale(3.9483333333333)"><rect width="6" height="6"></rect></g>
<g transform="translate(129.375,405.375) scale(3.9483333333333)"><rect width="6" height="6"></rect></g>
<g transform="translate(221.375,405.375) scale(3.9483333333333)"><rect width="6" height="6"></rect></g>
<g transform="translate(267.375,405.375) scale(3.9483333333333)"><rect width="6" height="6"></rect></g>
<g transform="translate(290.375,405.375) scale(3.9483333333333)"><rect width="6" height="6"></rect></g>
<g transform="translate(313.375,405.375) scale(3.9483333333333)"><rect width="6" height="6"></rect></g>
<g transform="translate(336.375,405.375) scale(3.9483333333333)"><rect width="6" height="6"></rect></g>
<g transform="translate(382.375,405.375) scale(3.9483333333333)"><rect width="6" height="6"></rect></g>
<g transform="translate(497.375,405.375) scale(3.9483333333333)"><rect width="6" height="6"></rect></g>
<g transform="translate(520.375,405.375) scale(3.9483333333333)"><rect width="6" height="6"></rect></g>
<g transform="translate(566.375,405.375) scale(3.9483333333333)"><rect width="6" height="6"></rect></g>
<g transform="translate(635.375,405.375) scale(3.9483333333333)"><rect width="6" height="6"></rect></g>
<g transform="translate(658.375,405.375) scale(3.9483333333333)"><rect width="6" height="6"></rect></g>
<g transform="translate(681.375,405.375) scale(3.9483333333333)"><rect width="6" height="6"></rect></g>
<g transform="translate(704.375,405.375) scale(3.9483333333333)"><rect width="6" height="6"></rect></g>
<g transform="translate(750.375,405.375) scale(3.9483333333333)"><rect width="6" height="6"></rect></g>
<g transform="translate(773.375,405.375) scale(3.9483333333333)"><rect width="6" height="6"></rect></g>
<g transform="translate(819.375,405.375) scale(3.9483333333333)"><rect width="6" height="6"></rect></g>
<g transform="translate(865.375,405.375) scale(3.9483333333333)"><rect width="6" height="6"></rect></g>
<g transform="translate(888.375,405.375) scale(3.9483333333333)"><rect width="6" height="6"></rect></g>
<g transform="translate(106.375,428.375) scale(3.9483333333333)"><rect width="6" height="6"></rect></g>
<g transform="translate(175.375,428.375) scale(3.9483333333333)"><rect width="6" height="6"></rect></g>
<g transform="translate(198.375,428.375) scale(3.9483333333333)"><rect width="6" height="6"></rect></g>
<g transform="translate(244.375,428.375) scale(3.9483333333333)"><rect width="6" height="6"></rect></g>
<g transform="translate(313.375,428.375) scale(3.9483333333333)"><rect width="6" height="6"></rect></g>
<g transform="translate(336.375,428.375) scale(3.9483333333333)"><rect width="6" height="6"></rect></g>
<g transform="translate(359.375,428.375) scale(3.9483333333333)"><rect width="6" height="6"></rect></g>
<g transform="translate(428.375,428.375) scale(3.9483333333333)"><rect width="6" height="6"></rect></g>
<g transform="translate(474.375,428.375) scale(3.9483333333333)"><rect width="6" height="6"></rect></g>
<g transform="translate(497.375,428.375) scale(3.9483333333333)"><rect width="6" height="6"></rect></g>
<g transform="translate(520.375,428.375) scale(3.9483333333333)"><rect width="6" height="6"></rect></g>
<g transform="translate(543.375,428.375) scale(3.9483333333333)"><rect width="6" height="6"></rect></g>
<g transform="translate(566.375,428.375) scale(3.9483333333333)"><rect width="6" height="6"></rect></g>
<g transform="translate(589.375,428.375) scale(3.9483333333333)"><rect width="6" height="6"></rect></g>
<g transform="translate(612.375,428.375) scale(3.9483333333333)"><rect width="6" height="6"></rect></g>
<g transform="translate(704.375,428.375) scale(3.9483333333333)"><rect width="6" height="6"></rect></g>
<g transform="translate(727.375,428.375) scale(3.9483333333333)"><rect width="6" height="6"></rect></g>
<g transform="translate(750.375,428.375) scale(3.9483333333333)"><rect width="6" height="6"></rect></g>
<g transform="translate(773.375,428.375) scale(3.9483333333333)"><rect width="6" height="6"></rect></g>
<g transform="translate(796.375,428.375) scale(3.9483333333333)"><rect width="6" height="6"></rect></g>
<g transform="translate(819.375,428.375) scale(3.9483333333333)"><rect width="6" height="6"></rect></g>
<g transform="translate(842.375,428.375) scale(3.9483333333333)"><rect width="6" height="6"></rect></g>
<g transform="translate(865.375,428.375) scale(3.9483333333333)"><rect width="6" height="6"></rect></g>
<g transform="translate(911.375,428.375) scale(3.9483333333333)"><rect width="6" height="6"></rect></g>
<g transform="translate(934.375,428.375) scale(3.9483333333333)"><rect width="6" height="6"></rect></g>
<g transform="translate(106.375,451.375) scale(3.9483333333333)"><rect width="6" height="6"></rect></g>
<g transform="translate(129.375,451.375) scale(3.9483333333333)"><rect width="6" height="6"></rect></g>
<g transform="translate(152.375,451.375) scale(3.9483333333333)"><rect width="6" height="6"></rect></g>
<g transform="translate(267.375,451.375) scale(3.9483333333333)"><rect width="6" height="6"></rect></g>
<g transform="translate(405.375,451.375) scale(3.9483333333333)"><rect width="6" height="6"></rect></g>
<g transform="translate(428.375,451.375) scale(3.9483333333333)"><rect width="6" height="6"></rect></g>
<g transform="translate(474.375,451.375) scale(3.9483333333333)"><rect width="6" height="6"></rect></g>
<g transform="translate(497.375,451.375) scale(3.9483333333333)"><rect width="6" height="6"></rect></g>
<g transform="translate(543.375,451.375) scale(3.9483333333333)"><rect width="6" height="6"></rect></g>
<g transform="translate(566.375,451.375) scale(3.9483333333333)"><rect width="6" height="6"></rect></g>
<g transform="translate(589.375,451.375) scale(3.9483333333333)"><rect width="6" height="6"></rect></g>
<g transform="translate(658.375,451.375) scale(3.9483333333333)"><rect width="6" height="6"></rect></g>
<g transform="translate(704.375,451.375) scale(3.9483333333333)"><rect width="6" height="6"></rect></g>
<g transform="translate(727.375,451.375) scale(3.9483333333333)"><rect width="6" height="6"></rect></g>
<g transform="translate(773.375,451.375) scale(3.9483333333333)"><rect width="6" height="6"></rect></g>
<g transform="translate(796.375,451.375) scale(3.9483333333333)"><rect width="6" height="6"></rect></g>
<g transform="translate(819.375,451.375) scale(3.9483333333333)"><rect width="6" height="6"></rect></g>
<g transform="translate(842.375,451.375) scale(3.9483333333333)"><rect width="6" height="6"></rect></g>
<g transform="translate(911.375,451.375) scale(3.9483333333333)"><rect width="6" height="6"></rect></g>
<g transform="translate(106.375,474.375) scale(3.9483333333333)"><rect width="6" height="6"></rect></g>
<g transform="translate(244.375,474.375) scale(3.9483333333333)"><rect width="6" height="6"></rect></g>
<g transform="translate(267.375,474.375) scale(3.9483333333333)"><rect width="6" height="6"></rect></g>
<g transform="translate(290.375,474.375) scale(3.9483333333333)"><rect width="6" height="6"></rect></g>
<g transform="translate(313.375,474.375) scale(3.9483333333333)"><rect width="6" height="6"></rect></g>
<g transform="translate(336.375,474.375) scale(3.9483333333333)"><rect width="6" height="6"></rect></g>
<g transform="translate(405.375,474.375) scale(3.9483333333333)"><rect width="6" height="6"></rect></g>
<g transform="translate(428.375,474.375) scale(3.9483333333333)"><rect width="6" height="6"></rect></g>
<g transform="translate(451.375,474.375) scale(3.9483333333333)"><rect width="6" height="6"></rect></g>
<g transform="translate(566.375,474.375) scale(3.9483333333333)"><rect width="6" height="6"></rect></g>
<g transform="translate(589.375,474.375) scale(3.9483333333333)"><rect width="6" height="6"></rect></g>
<g transform="translate(635.375,474.375) scale(3.9483333333333)"><rect width="6" height="6"></rect></g>
<g transform="translate(681.375,474.375) scale(3.9483333333333)"><rect width="6" height="6"></rect></g>
<g transform="translate(704.375,474.375) scale(3.9483333333333)"><rect width="6" height="6"></rect></g>
<g transform="translate(727.375,474.375) scale(3.9483333333333)"><rect width="6" height="6"></rect></g>
<g transform="translate(773.375,474.375) scale(3.9483333333333)"><rect width="6" height="6"></rect></g>
<g transform="translate(796.375,474.375) scale(3.9483333333333)"><rect width="6" height="6"></rect></g>
<g transform="translate(842.375,474.375) scale(3.9483333333333)"><rect width="6" height="6"></rect></g>
<g transform="translate(888.375,474.375) scale(3.9483333333333)"><rect width="6" height="6"></rect></g>
<g transform="translate(934.375,474.375) scale(3.9483333333333)"><rect width="6" height="6"></rect></g>
<g transform="translate(129.375,497.375) scale(3.9483333333333)"><rect width="6" height="6"></rect></g>
<g transform="translate(198.375,497.375) scale(3.9483333333333)"><rect width="6" height="6"></rect></g>
<g transform="translate(221.375,497.375) scale(3.9483333333333)"><rect width="6" height="6"></rect></g>
<g transform="translate(267.375,497.375) scale(3.9483333333333)"><rect width="6" height="6"></rect></g>
<g transform="translate(290.375,497.375) scale(3.9483333333333)"><rect width="6" height="6"></rect></g>
<g transform="translate(336.375,497.375) scale(3.9483333333333)"><rect width="6" height="6"></rect></g>
<g transform="translate(359.375,497.375) scale(3.9483333333333)"><rect width="6" height="6"></rect></g>
<g transform="translate(382.375,497.375) scale(3.9483333333333)"><rect width="6" height="6"></rect></g>
<g transform="translate(405.375,497.375) scale(3.9483333333333)"><rect width="6" height="6"></rect></g>
<g transform="translate(520.375,497.375) scale(3.9483333333333)"><rect width="6" height="6"></rect></g>
<g transform="translate(566.375,497.375) scale(3.9483333333333)"><rect width="6" height="6"></rect></g>
<g transform="translate(589.375,497.375) scale(3.9483333333333)"><rect width="6" height="6"></rect></g>
<g transform="translate(612.375,497.375) scale(3.9483333333333)"><rect width="6" height="6"></rect></g>
<g transform="translate(635.375,497.375) scale(3.9483333333333)"><rect width="6" height="6"></rect></g>
<g transform="translate(658.375,497.375) scale(3.9483333333333)"><rect width="6" height="6"></rect></g>
<g transform="translate(750.375,497.375) scale(3.9483333333333)"><rect width="6" height="6"></rect></g>
<g transform="translate(819.375,497.375) scale(3.9483333333333)"><rect width="6" height="6"></rect></g>
<g transform="translate(865.375,497.375) scale(3.9483333333333)"><rect width="6" height="6"></rect></g>
<g transform="translate(129.375,520.375) scale(3.9483333333333)"><rect width="6" height="6"></rect></g>
<g transform="translate(152.375,520.375) scale(3.9483333333333)"><rect width="6" height="6"></rect></g>
<g transform="translate(175.375,520.375) scale(3.9483333333333)"><rect width="6" height="6"></rect></g>
<g transform="translate(198.375,520.375) scale(3.9483333333333)"><rect width="6" height="6"></rect></g>
<g transform="translate(244.375,520.375) scale(3.9483333333333)"><rect width="6" height="6"></rect></g>
<g transform="translate(267.375,520.375) scale(3.9483333333333)"><rect width="6" height="6"></rect></g>
<g transform="translate(313.375,520.375) scale(3.9483333333333)"><rect width="6" height="6"></rect></g>
<g transform="translate(382.375,520.375) scale(3.9483333333333)"><rect width="6" height="6"></rect></g>
<g transform="translate(451.375,520.375) scale(3.9483333333333)"><rect width="6" height="6"></rect></g>
<g transform="translate(474.375,520.375) scale(3.9483333333333)"><rect width="6" height="6"></rect></g>
<g transform="translate(520.375,520.375) scale(3.9483333333333)"><rect width="6" height="6"></rect></g>
<g transform="translate(681.375,520.375) scale(3.9483333333333)"><rect width="6" height="6"></rect></g>
<g transform="translate(704.375,520.375) scale(3.9483333333333)"><rect width="6" height="6"></rect></g>
<g transform="translate(727.375,520.375) scale(3.9483333333333)"><rect width="6" height="6"></rect></g>
<g transform="translate(773.375,520.375) scale(3.9483333333333)"><rect width="6" height="6"></rect></g>
<g transform="translate(888.375,520.375) scale(3.9483333333333)"><rect width="6" height="6"></rect></g>
<g transform="translate(911.375,520.375) scale(3.9483333333333)"><rect width="6" height="6"></rect></g>
<g transform="translate(934.375,520.375) scale(3.9483333333333)"><rect width="6" height="6"></rect></g>
<g transform="translate(106.375,543.375) scale(3.9483333333333)"><rect width="6" height="6"></rect></g>
<g transform="translate(129.375,543.375) scale(3.9483333333333)"><rect width="6" height="6"></rect></g>
<g transform="translate(152.375,543.375) scale(3.9483333333333)"><rect width="6" height="6"></rect></g>
<g transform="translate(175.375,543.375) scale(3.9483333333333)"><rect width="6" height="6"></rect></g>
<g transform="translate(382.375,543.375) scale(3.9483333333333)"><rect width="6" height="6"></rect></g>
<g transform="translate(405.375,543.375) scale(3.9483333333333)"><rect width="6" height="6"></rect></g>
<g transform="translate(474.375,543.375) scale(3.9483333333333)"><rect width="6" height="6"></rect></g>
<g transform="translate(704.375,543.375) scale(3.9483333333333)"><rect width="6" height="6"></rect></g>
<g transform="translate(727.375,543.375) scale(3.9483333333333)"><rect width="6" height="6"></rect></g>
<g transform="translate(773.375,543.375) scale(3.9483333333333)"><rect width="6" height="6"></rect></g>
<g transform="translate(796.375,543.375) scale(3.9483333333333)"><rect width="6" height="6"></rect></g>
<g transform="translate(819.375,543.375) scale(3.9483333333333)"><rect width="6" height="6"></rect></g>
<g transform="translate(842.375,543.375) scale(3.9483333333333)"><rect width="6" height="6"></rect></g>
<g transform="translate(175.375,566.375) scale(3.9483333333333)"><rect width="6" height="6"></rect></g>
<g transform="translate(244.375,566.375) scale(3.9483333333333)"><rect width="6" height="6"></rect></g>
<g transform="translate(267.375,566.375) scale(3.9483333333333)"><rect width="6" height="6"></rect></g>
<g transform="translate(290.375,566.375) scale(3.9483333333333)"><rect width="6" height="6"></rect></g>
<g transform="translate(336.375,566.375) scale(3.9483333333333)"><rect width="6" height="6"></rect></g>
<g transform="translate(405.375,566.375) scale(3.9483333333333)"><rect width="6" height="6"></rect></g>
<g transform="translate(451.375,566.375) scale(3.9483333333333)"><rect width="6" height="6"></rect></g>
<g transform="translate(497.375,566.375) scale(3.9483333333333)"><rect width="6" height="6"></rect></g>
<g transform="translate(520.375,566.375) scale(3.9483333333333)"><rect width="6" height="6"></rect></g>
<g transform="translate(566.375,566.375) scale(3.9483333333333)"><rect width="6" height="6"></rect></g>
<g transform="translate(612.375,566.375) scale(3.9483333333333)"><rect width="6" height="6"></rect></g>
<g transform="translate(658.375,566.375) scale(3.9483333333333)"><rect width="6" height="6"></rect></g>
<g transform="translate(681.375,566.375) scale(3.9483333333333)"><rect width="6" height="6"></rect></g>
<g transform="translate(704.375,566.375) scale(3.9483333333333)"><rect width="6" height="6"></rect></g>
<g transform="translate(796.375,566.375) scale(3.9483333333333)"><rect width="6" height="6"></rect></g>
<g transform="translate(819.375,566.375) scale(3.9483333333333)"><rect width="6" height="6"></rect></g>
<g transform="translate(842.375,566.375) scale(3.9483333333333)"><rect width="6" height="6"></rect></g>
<g transform="translate(865.375,566.375) scale(3.9483333333333)"><rect width="6" height="6"></rect></g>
<g transform="translate(888.375,566.375) scale(3.9483333333333)"><rect width="6" height="6"></rect></g>
<g transform="translate(106.375,589.375) scale(3.9483333333333)"><rect width="6" height="6"></rect></g>
<g transform="translate(129.375,589.375) scale(3.9483333333333)"><rect width="6" height="6"></rect></g>
<g transform="translate(221.375,589.375) scale(3.9483333333333)"><rect width="6" height="6"></rect></g>
<g transform="translate(267.375,589.375) scale(3.9483333333333)"><rect width="6" height="6"></rect></g>
<g transform="translate(290.375,589.375) scale(3.9483333333333)"><rect width="6" height="6"></rect></g>
<g transform="translate(313.375,589.375) scale(3.9483333333333)"><rect width="6" height="6"></rect></g>
<g transform="translate(336.375,589.375) scale(3.9483333333333)"><rect width="6" height="6"></rect></g>
<g transform="translate(382.375,589.375) scale(3.9483333333333)"><rect width="6" height="6"></rect></g>
<g transform="translate(428.375,589.375) scale(3.9483333333333)"><rect width="6" height="6"></rect></g>
<g transform="translate(451.375,589.375) scale(3.9483333333333)"><rect width="6" height="6"></rect></g>
<g transform="translate(497.375,589.375) scale(3.9483333333333)"><rect width="6" height="6"></rect></g>
<g transform="translate(566.375,589.375) scale(3.9483333333333)"><rect width="6" height="6"></rect></g>
<g transform="translate(635.375,589.375) scale(3.9483333333333)"><rect width="6" height="6"></rect></g>
<g transform="translate(658.375,589.375) scale(3.9483333333333)"><rect width="6" height="6"></rect></g>
<g transform="translate(681.375,589.375) scale(3.9483333333333)"><rect width="6" height="6"></rect></g>
<g transform="translate(704.375,589.375) scale(3.9483333333333)"><rect width="6" height="6"></rect></g>
<g transform="translate(819.375,589.375) scale(3.9483333333333)"><rect width="6" height="6"></rect></g>
<g transform="translate(888.375,589.375) scale(3.9483333333333)"><rect width="6" height="6"></rect></g>
<g transform="translate(911.375,589.375) scale(3.9483333333333)"><rect width="6" height="6"></rect></g>
<g transform="translate(244.375,612.375) scale(3.9483333333333)"><rect width="6" height="6"></rect></g>
<g transform="translate(313.375,612.375) scale(3.9483333333333)"><rect width="6" height="6"></rect></g>
<g transform="translate(336.375,612.375) scale(3.9483333333333)"><rect width="6" height="6"></rect></g>
<g transform="translate(359.375,612.375) scale(3.9483333333333)"><rect width="6" height="6"></rect></g>
<g transform="translate(405.375,612.375) scale(3.9483333333333)"><rect width="6" height="6"></rect></g>
<g transform="translate(428.375,612.375) scale(3.9483333333333)"><rect width="6" height="6"></rect></g>
<g transform="translate(520.375,612.375) scale(3.9483333333333)"><rect width="6" height="6"></rect></g>
<g transform="translate(543.375,612.375) scale(3.9483333333333)"><rect width="6" height="6"></rect></g>
<g transform="translate(566.375,612.375) scale(3.9483333333333)"><rect width="6" height="6"></rect></g>
<g transform="translate(727.375,612.375) scale(3.9483333333333)"><rect width="6" height="6"></rect></g>
<g transform="translate(773.375,612.375) scale(3.9483333333333)"><rect width="6" height="6"></rect></g>
<g transform="translate(865.375,612.375) scale(3.9483333333333)"><rect width="6" height="6"></rect></g>
<g transform="translate(888.375,612.375) scale(3.9483333333333)"><rect width="6" height="6"></rect></g>
<g transform="translate(911.375,612.375) scale(3.9483333333333)"><rect width="6" height="6"></rect></g>
<g transform="translate(934.375,612.375) scale(3.9483333333333)"><rect width="6" height="6"></rect></g>
<g transform="translate(152.375,635.375) scale(3.9483333333333)"><rect width="6" height="6"></rect></g>
<g transform="translate(198.375,635.375) scale(3.9483333333333)"><rect width="6" height="6"></rect></g>
<g transform="translate(290.375,635.375) scale(3.9483333333333)"><rect width="6" height="6"></rect></g>
<g transform="translate(313.375,635.375) scale(3.9483333333333)"><rect width="6" height="6"></rect></g>
<g transform="translate(336.375,635.375) scale(3.9483333333333)"><rect width="6" height="6"></rect></g>
<g transform="translate(359.375,635.375) scale(3.9483333333333)"><rect width="6" height="6"></rect></g>
<g transform="translate(405.375,635.375) scale(3.9483333333333)"><rect width="6" height="6"></rect></g>
<g transform="translate(451.375,635.375) scale(3.9483333333333)"><rect width="6" height="6"></rect></g>
<g transform="translate(474.375,635.375) scale(3.9483333333333)"><rect width="6" height="6"></rect></g>
<g transform="translate(520.375,635.375) scale(3.9483333333333)"><rect width="6" height="6"></rect></g>
<g transform="translate(566.375,635.375) scale(3.9483333333333)"><rect width="6" height="6"></rect></g>
<g transform="translate(612.375,635.375) scale(3.9483333333333)"><rect width="6" height="6"></rect></g>
<g transform="translate(635.375,635.375) scale(3.9483333333333)"><rect width="6" height="6"></rect></g>
<g transform="translate(773.375,635.375) scale(3.9483333333333)"><rect width="6" height="6"></rect></g>
<g transform="translate(819.375,635.375) scale(3.9483333333333)"><rect width="6" height="6"></rect></g>
<g transform="translate(911.375,635.375) scale(3.9483333333333)"><rect width="6" height="6"></rect></g>
<g transform="translate(934.375,635.375) scale(3.9483333333333)"><rect width="6" height="6"></rect></g>
<g transform="translate(175.375,658.375) scale(3.9483333333333)"><rect width="6" height="6"></rect></g>
<g transform="translate(198.375,658.375) scale(3.9483333333333)"><rect width="6" height="6"></rect></g>
<g transform="translate(221.375,658.375) scale(3.9483333333333)"><rect width="6" height="6"></rect></g>
<g transform="translate(244.375,658.375) scale(3.9483333333333)"><rect width="6" height="6"></rect></g>
<g transform="translate(290.375,658.375) scale(3.9483333333333)"><rect width="6" height="6"></rect></g>
<g transform="translate(313.375,658.375) scale(3.9483333333333)"><rect width="6" height="6"></rect></g>
<g transform="translate(336.375,658.375) scale(3.9483333333333)"><rect width="6" height="6"></rect></g>
<g transform="translate(359.375,658.375) scale(3.9483333333333)"><rect width="6" height="6"></rect></g>
<g transform="translate(382.375,658.375) scale(3.9483333333333)"><rect width="6" height="6"></rect></g>
<g transform="translate(405.375,658.375) scale(3.9483333333333)"><rect width="6" height="6"></rect></g>
<g transform="translate(428.375,658.375) scale(3.9483333333333)"><rect width="6" height="6"></rect></g>
<g transform="translate(543.375,658.375) scale(3.9483333333333)"><rect width="6" height="6"></rect></g>
<g transform="translate(612.375,658.375) scale(3.9483333333333)"><rect width="6" height="6"></rect></g>
<g transform="translate(635.375,658.375) scale(3.9483333333333)"><rect width="6" height="6"></rect></g>
<g transform="translate(773.375,658.375) scale(3.9483333333333)"><rect width="6" height="6"></rect></g>
<g transform="translate(796.375,658.375) scale(3.9483333333333)"><rect width="6" height="6"></rect></g>
<g transform="translate(842.375,658.375) scale(3.9483333333333)"><rect width="6" height="6"></rect></g>
<g transform="translate(865.375,658.375) scale(3.9483333333333)"><rect width="6" height="6"></rect></g>
<g transform="translate(888.375,658.375) scale(3.9483333333333)"><rect width="6" height="6"></rect></g>
<g transform="translate(934.375,658.375) scale(3.9483333333333)"><rect width="6" height="6"></rect></g>
<g transform="translate(106.375,681.375) scale(3.9483333333333)"><rect width="6" height="6"></rect></g>
<g transform="translate(175.375,681.375) scale(3.9483333333333)"><rect width="6" height="6"></rect></g>
<g transform="translate(313.375,681.375) scale(3.9483333333333)"><rect width="6" height="6"></rect></g>
<g transform="translate(336.375,681.375) scale(3.9483333333333)"><rect width="6" height="6"></rect></g>
<g transform="translate(359.375,681.375) scale(3.9483333333333)"><rect width="6" height="6"></rect></g>
<g transform="translate(405.375,681.375) scale(3.9483333333333)"><rect width="6" height="6"></rect></g>
<g transform="translate(428.375,681.375) scale(3.9483333333333)"><rect width="6" height="6"></rect></g>
<g transform="translate(497.375,681.375) scale(3.9483333333333)"><rect width="6" height="6"></rect></g>
<g transform="translate(543.375,681.375) scale(3.9483333333333)"><rect width="6" height="6"></rect></g>
<g transform="translate(612.375,681.375) scale(3.9483333333333)"><rect width="6" height="6"></rect></g>
<g transform="translate(658.375,681.375) scale(3.9483333333333)"><rect width="6" height="6"></rect></g>
<g transform="translate(750.375,681.375) scale(3.9483333333333)"><rect width="6" height="6"></rect></g>
<g transform="translate(819.375,681.375) scale(3.9483333333333)"><rect width="6" height="6"></rect></g>
<g transform="translate(888.375,681.375) scale(3.9483333333333)"><rect width="6" height="6"></rect></g>
<g transform="translate(106.375,704.375) scale(3.9483333333333)"><rect width="6" height="6"></rect></g>
<g transform="translate(152.375,704.375) scale(3.9483333333333)"><rect width="6" height="6"></rect></g>
<g transform="translate(175.375,704.375) scale(3.9483333333333)"><rect width="6" height="6"></rect></g>
<g transform="translate(221.375,704.375) scale(3.9483333333333)"><rect width="6" height="6"></rect></g>
<g transform="translate(244.375,704.375) scale(3.9483333333333)"><rect width="6" height="6"></rect></g>
<g transform="translate(290.375,704.375) scale(3.9483333333333)"><rect width="6" height="6"></rect></g>
<g transform="translate(313.375,704.375) scale(3.9483333333333)"><rect width="6" height="6"></rect></g>
<g transform="translate(336.375,704.375) scale(3.9483333333333)"><rect width="6" height="6"></rect></g>
<g transform="translate(405.375,704.375) scale(3.9483333333333)"><rect width="6" height="6"></rect></g>
<g transform="translate(428.375,704.375) scale(3.9483333333333)"><rect width="6" height="6"></rect></g>
<g transform="translate(451.375,704.375) scale(3.9483333333333)"><rect width="6" height="6"></rect></g>
<g transform="translate(474.375,704.375) scale(3.9483333333333)"><rect width="6" height="6"></rect></g>
<g transform="translate(497.375,704.375) scale(3.9483333333333)"><rect width="6" height="6"></rect></g>
<g transform="translate(520.375,704.375) scale(3.9483333333333)"><rect width="6" height="6"></rect></g>
<g transform="translate(543.375,704.375) scale(3.9483333333333)"><rect width="6" height="6"></rect></g>
<g transform="translate(566.375,704.375) scale(3.9483333333333)"><rect width="6" height="6"></rect></g>
<g transform="translate(727.375,704.375) scale(3.9483333333333)"><rect width="6" height="6"></rect></g>
<g transform="translate(796.375,704.375) scale(3.9483333333333)"><rect width="6" height="6"></rect></g>
<g transform="translate(911.375,704.375) scale(3.9483333333333)"><rect width="6" height="6"></rect></g>
<g transform="translate(934.375,704.375) scale(3.9483333333333)"><rect width="6" height="6"></rect></g>
<g transform="translate(106.375,727.375) scale(3.9483333333333)"><rect width="6" height="6"></rect></g>
<g transform="translate(152.375,727.375) scale(3.9483333333333)"><rect width="6" height="6"></rect></g>
<g transform="translate(175.375,727.375) scale(3.9483333333333)"><rect width="6" height="6"></rect></g>
<g transform="translate(198.375,727.375) scale(3.9483333333333)"><rect width="6" height="6"></rect></g>
<g transform="translate(221.375,727.375) scale(3.9483333333333)"><rect width="6" height="6"></rect></g>
<g transform="translate(382.375,727.375) scale(3.9483333333333)"><rect width="6" height="6"></rect></g>
<g transform="translate(428.375,727.375) scale(3.9483333333333)"><rect width="6" height="6"></rect></g>
<g transform="translate(474.375,727.375) scale(3.9483333333333)"><rect width="6" height="6"></rect></g>
<g transform="translate(566.375,727.375) scale(3.9483333333333)"><rect width="6" height="6"></rect></g>
<g transform="translate(612.375,727.375) scale(3.9483333333333)"><rect width="6" height="6"></rect></g>
<g transform="translate(658.375,727.375) scale(3.9483333333333)"><rect width="6" height="6"></rect></g>
<g transform="translate(727.375,727.375) scale(3.9483333333333)"><rect width="6" height="6"></rect></g>
<g transform="translate(750.375,727.375) scale(3.9483333333333)"><rect width="6" height="6"></rect></g>
<g transform="translate(773.375,727.375) scale(3.9483333333333)"><rect width="6" height="6"></rect></g>
<g transform="translate(819.375,727.375) scale(3.9483333333333)"><rect width="6" height="6"></rect></g>
<g transform="translate(106.375,750.375) scale(3.9483333333333)"><rect width="6" height="6"></rect></g>
<g transform="translate(175.375,750.375) scale(3.9483333333333)"><rect width="6" height="6"></rect></g>
<g transform="translate(244.375,750.375) scale(3.9483333333333)"><rect width="6" height="6"></rect></g>
<g transform="translate(313.375,750.375) scale(3.9483333333333)"><rect width="6" height="6"></rect></g>
<g transform="translate(336.375,750.375) scale(3.9483333333333)"><rect width="6" height="6"></rect></g>
<g transform="translate(359.375,750.375) scale(3.9483333333333)"><rect width="6" height="6"></rect></g>
<g transform="translate(382.375,750.375) scale(3.9483333333333)"><rect width="6" height="6"></rect></g>
<g transform="translate(428.375,750.375) scale(3.9483333333333)"><rect width="6" height="6"></rect></g>
<g transform="translate(451.375,750.375) scale(3.9483333333333)"><rect width="6" height="6"></rect></g>
<g transform="translate(474.375,750.375) scale(3.9483333333333)"><rect width="6" height="6"></rect></g>
<g transform="translate(520.375,750.375) scale(3.9483333333333)"><rect width="6" height="6"></rect></g>
<g transform="translate(566.375,750.375) scale(3.9483333333333)"><rect width="6" height="6"></rect></g>
<g transform="translate(589.375,750.375) scale(3.9483333333333)"><rect width="6" height="6"></rect></g>
<g transform="translate(658.375,750.375) scale(3.9483333333333)"><rect width="6" height="6"></rect></g>
<g transform="translate(681.375,750.375) scale(3.9483333333333)"><rect width="6" height="6"></rect></g>
<g transform="translate(704.375,750.375) scale(3.9483333333333)"><rect width="6" height="6"></rect></g>
<g transform="translate(750.375,750.375) scale(3.9483333333333)"><rect width="6" height="6"></rect></g>
<g transform="translate(773.375,750.375) scale(3.9483333333333)"><rect width="6" height="6"></rect></g>
<g transform="translate(796.375,750.375) scale(3.9483333333333)"><rect width="6" height="6"></rect></g>
<g transform="translate(819.375,750.375) scale(3.9483333333333)"><rect width="6" height="6"></rect></g>
<g transform="translate(842.375,750.375) scale(3.9483333333333)"><rect width="6" height="6"></rect></g>
<g transform="translate(888.375,750.375) scale(3.9483333333333)"><rect width="6" height="6"></rect></g>
<g transform="translate(911.375,750.375) scale(3.9483333333333)"><rect width="6" height="6"></rect></g>
<g transform="translate(290.375,773.375) scale(3.9483333333333)"><rect width="6" height="6"></rect></g>
<g transform="translate(336.375,773.375) scale(3.9483333333333)"><rect width="6" height="6"></rect></g>
<g transform="translate(359.375,773.375) scale(3.9483333333333)"><rect width="6" height="6"></rect></g>
<g transform="translate(405.375,773.375) scale(3.9483333333333)"><rect width="6" height="6"></rect></g>
<g transform="translate(428.375,773.375) scale(3.9483333333333)"><rect width="6" height="6"></rect></g>
<g transform="translate(497.375,773.375) scale(3.9483333333333)"><rect width="6" height="6"></rect></g>
<g transform="translate(520.375,773.375) scale(3.9483333333333)"><rect width="6" height="6"></rect></g>
<g transform="translate(566.375,773.375) scale(3.9483333333333)"><rect width="6" height="6"></rect></g>
<g transform="translate(589.375,773.375) scale(3.9483333333333)"><rect width="6" height="6"></rect></g>
<g transform="translate(612.375,773.375) scale(3.9483333333333)"><rect width="6" height="6"></rect></g>
<g transform="translate(635.375,773.375) scale(3.9483333333333)"><rect width="6" height="6"></rect></g>
<g transform="translate(727.375,773.375) scale(3.9483333333333)"><rect width="6" height="6"></rect></g>
<g transform="translate(750.375,773.375) scale(3.9483333333333)"><rect width="6" height="6"></rect></g>
<g transform="translate(842.375,773.375) scale(3.9483333333333)"><rect width="6" height="6"></rect></g>
<g transform="translate(911.375,773.375) scale(3.9483333333333)"><rect width="6" height="6"></rect></g>
<g transform="translate(313.375,796.375) scale(3.9483333333333)"><rect width="6" height="6"></rect></g>
<g transform="translate(336.375,796.375) scale(3.9483333333333)"><rect width="6" height="6"></rect></g>
<g transform="translate(359.375,796.375) scale(3.9483333333333)"><rect width="6" height="6"></rect></g>
<g transform="translate(382.375,796.375) scale(3.9483333333333)"><rect width="6" height="6"></rect></g>
<g transform="translate(405.375,796.375) scale(3.9483333333333)"><rect width="6" height="6"></rect></g>
<g transform="translate(428.375,796.375) scale(3.9483333333333)"><rect width="6" height="6"></rect></g>
<g transform="translate(451.375,796.375) scale(3.9483333333333)"><rect width="6" height="6"></rect></g>
<g transform="translate(520.375,796.375) scale(3.9483333333333)"><rect width="6" height="6"></rect></g>
<g transform="translate(543.375,796.375) scale(3.9483333333333)"><rect width="6" height="6"></rect></g>
<g transform="translate(566.375,796.375) scale(3.9483333333333)"><rect width="6" height="6"></rect></g>
<g transform="translate(589.375,796.375) scale(3.9483333333333)"><rect width="6" height="6"></rect></g>
<g transform="translate(658.375,796.375) scale(3.9483333333333)"><rect width="6" height="6"></rect></g>
<g transform="translate(750.375,796.375) scale(3.9483333333333)"><rect width="6" height="6"></rect></g>
<g transform="translate(796.375,796.375) scale(3.9483333333333)"><rect width="6" height="6"></rect></g>
<g transform="translate(842.375,796.375) scale(3.9483333333333)"><rect width="6" height="6"></rect></g>
<g transform="translate(865.375,796.375) scale(3.9483333333333)"><rect width="6" height="6"></rect></g>
<g transform="translate(911.375,796.375) scale(3.9483333333333)"><rect width="6" height="6"></rect></g>
<g transform="translate(934.375,796.375) scale(3.9483333333333)"><rect width="6" height="6"></rect></g>
<g transform="translate(313.375,819.375) scale(3.9483333333333)"><rect width="6" height="6"></rect></g>
<g transform="translate(359.375,819.375) scale(3.9483333333333)"><rect width="6" height="6"></rect></g>
<g transform="translate(382.375,819.375) scale(3.9483333333333)"><rect width="6" height="6"></rect></g>
<g transform="translate(474.375,819.375) scale(3.9483333333333)"><rect width="6" height="6"></rect></g>
<g transform="translate(497.375,819.375) scale(3.9483333333333)"><rect width="6" height="6"></rect></g>
<g transform="translate(566.375,819.375) scale(3.9483333333333)"><rect width="6" height="6"></rect></g>
<g transform="translate(612.375,819.375) scale(3.9483333333333)"><rect width="6" height="6"></rect></g>
<g transform="translate(704.375,819.375) scale(3.9483333333333)"><rect width="6" height="6"></rect></g>
<g transform="translate(750.375,819.375) scale(3.9483333333333)"><rect width="6" height="6"></rect></g>
<g transform="translate(842.375,819.375) scale(3.9483333333333)"><rect width="6" height="6"></rect></g>
<g transform="translate(911.375,819.375) scale(3.9483333333333)"><rect width="6" height="6"></rect></g>
<g transform="translate(934.375,819.375) scale(3.9483333333333)"><rect width="6" height="6"></rect></g>
<g transform="translate(290.375,842.375) scale(3.9483333333333)"><rect width="6" height="6"></rect></g>
<g transform="translate(382.375,842.375) scale(3.9483333333333)"><rect width="6" height="6"></rect></g>
<g transform="translate(405.375,842.375) scale(3.9483333333333)"><rect width="6" height="6"></rect></g>
<g transform="translate(428.375,842.375) scale(3.9483333333333)"><rect width="6" height="6"></rect></g>
<g transform="translate(520.375,842.375) scale(3.9483333333333)"><rect width="6" height="6"></rect></g>
<g transform="translate(543.375,842.375) scale(3.9483333333333)"><rect width="6" height="6"></rect></g>
<g transform="translate(566.375,842.375) scale(3.9483333333333)"><rect width="6" height="6"></rect></g>
<g transform="translate(635.375,842.375) scale(3.9483333333333)"><rect width="6" height="6"></rect></g>
<g transform="translate(658.375,842.375) scale(3.9483333333333)"><rect width="6" height="6"></rect></g>
<g transform="translate(681.375,842.375) scale(3.9483333333333)"><rect width="6" height="6"></rect></g>
<g transform="translate(704.375,842.375) scale(3.9483333333333)"><rect width="6" height="6"></rect></g>
<g transform="translate(727.375,842.375) scale(3.9483333333333)"><rect width="6" height="6"></rect></g>
<g transform="translate(750.375,842.375) scale(3.9483333333333)"><rect width="6" height="6"></rect></g>
<g transform="translate(773.375,842.375) scale(3.9483333333333)"><rect width="6" height="6"></rect></g>
<g transform="translate(796.375,842.375) scale(3.9483333333333)"><rect width="6" height="6"></rect></g>
<g transform="translate(819.375,842.375) scale(3.9483333333333)"><rect width="6" height="6"></rect></g>
<g transform="translate(842.375,842.375) scale(3.9483333333333)"><rect width="6" height="6"></rect></g>
<g transform="translate(888.375,842.375) scale(3.9483333333333)"><rect width="6" height="6"></rect></g>
<g transform="translate(934.375,842.375) scale(3.9483333333333)"><rect width="6" height="6"></rect></g>
<g transform="translate(290.375,865.375) scale(3.9483333333333)"><rect width="6" height="6"></rect></g>
<g transform="translate(382.375,865.375) scale(3.9483333333333)"><rect width="6" height="6"></rect></g>
<g transform="translate(451.375,865.375) scale(3.9483333333333)"><rect width="6" height="6"></rect></g>
<g transform="translate(474.375,865.375) scale(3.9483333333333)"><rect width="6" height="6"></rect></g>
<g transform="translate(497.375,865.375) scale(3.9483333333333)"><rect width="6" height="6"></rect></g>
<g transform="translate(520.375,865.375) scale(3.9483333333333)"><rect width="6" height="6"></rect></g>
<g transform="translate(543.375,865.375) scale(3.9483333333333)"><rect width="6" height="6"></rect></g>
<g transform="translate(566.375,865.375) scale(3.9483333333333)"><rect width="6" height="6"></rect></g>
<g transform="translate(589.375,865.375) scale(3.9483333333333)"><rect width="6" height="6"></rect></g>
<g transform="translate(612.375,865.375) scale(3.9483333333333)"><rect width="6" height="6"></rect></g>
<g transform="translate(750.375,865.375) scale(3.9483333333333)"><rect width="6" height="6"></rect></g>
<g transform="translate(796.375,865.375) scale(3.9483333333333)"><rect width="6" height="6"></rect></g>
<g transform="translate(842.375,865.375) scale(3.9483333333333)"><rect width="6" height="6"></rect></g>
<g transform="translate(865.375,865.375) scale(3.9483333333333)"><rect width="6" height="6"></rect></g>
<g transform="translate(290.375,888.375) scale(3.9483333333333)"><rect width="6" height="6"></rect></g>
<g transform="translate(313.375,888.375) scale(3.9483333333333)"><rect width="6" height="6"></rect></g>
<g transform="translate(359.375,888.375) scale(3.9483333333333)"><rect width="6" height="6"></rect></g>
<g transform="translate(497.375,888.375) scale(3.9483333333333)"><rect width="6" height="6"></rect></g>
<g transform="translate(520.375,888.375) scale(3.9483333333333)"><rect width="6" height="6"></rect></g>
<g transform="translate(543.375,888.375) scale(3.9483333333333)"><rect width="6" height="6"></rect></g>
<g transform="translate(589.375,888.375) scale(3.9483333333333)"><rect width="6" height="6"></rect></g>
<g transform="translate(612.375,888.375) scale(3.9483333333333)"><rect width="6" height="6"></rect></g>
<g transform="translate(635.375,888.375) scale(3.9483333333333)"><rect width="6" height="6"></rect></g>
<g transform="translate(658.375,888.375) scale(3.9483333333333)"><rect width="6" height="6"></rect></g>
<g transform="translate(704.375,888.375) scale(3.9483333333333)"><rect width="6" height="6"></rect></g>
<g transform="translate(750.375,888.375) scale(3.9483333333333)"><rect width="6" height="6"></rect></g>
<g transform="translate(773.375,888.375) scale(3.9483333333333)"><rect width="6" height="6"></rect></g>
<g transform="translate(819.375,888.375) scale(3.9483333333333)"><rect width="6" height="6"></rect></g>
<g transform="translate(934.375,888.375) scale(3.9483333333333)"><rect width="6" height="6"></rect></g>
<g transform="translate(313.375,911.375) scale(3.9483333333333)"><rect width="6" height="6"></rect></g>
<g transform="translate(336.375,911.375) scale(3.9483333333333)"><rect width="6" height="6"></rect></g>
<g transform="translate(428.375,911.375) scale(3.9483333333333)"><rect width="6" height="6"></rect></g>
<g transform="translate(497.375,911.375) scale(3.9483333333333)"><rect width="6" height="6"></rect></g>
<g transform="translate(520.375,911.375) scale(3.9483333333333)"><rect width="6" height="6"></rect></g>
<g transform="translate(635.375,911.375) scale(3.9483333333333)"><rect width="6" height="6"></rect></g>
<g transform="translate(704.375,911.375) scale(3.9483333333333)"><rect width="6" height="6"></rect></g>
<g transform="translate(727.375,911.375) scale(3.9483333333333)"><rect width="6" height="6"></rect></g>
<g transform="translate(750.375,911.375) scale(3.9483333333333)"><rect width="6" height="6"></rect></g>
<g transform="translate(796.375,911.375) scale(3.9483333333333)"><rect width="6" height="6"></rect></g>
<g transform="translate(819.375,911.375) scale(3.9483333333333)"><rect width="6" height="6"></rect></g>
<g transform="translate(842.375,911.375) scale(3.9483333333333)"><rect width="6" height="6"></rect></g>
<g transform="translate(934.375,911.375) scale(3.9483333333333)"><rect width="6" height="6"></rect></g>
<g transform="translate(359.375,934.375) scale(3.9483333333333)"><rect width="6" height="6"></rect></g>
<g transform="translate(382.375,934.375) scale(3.9483333333333)"><rect width="6" height="6"></rect></g>
<g transform="translate(405.375,934.375) scale(3.9483333333333)"><rect width="6" height="6"></rect></g>
<g transform="translate(497.375,934.375) scale(3.9483333333333)"><rect width="6" height="6"></rect></g>
<g transform="translate(520.375,934.375) scale(3.9483333333333)"><rect width="6" height="6"></rect></g>
<g transform="translate(543.375,934.375) scale(3.9483333333333)"><rect width="6" height="6"></rect></g>
<g transform="translate(566.375,934.375) scale(3.9483333333333)"><rect width="6" height="6"></rect></g>
<g transform="translate(589.375,934.375) scale(3.9483333333333)"><rect width="6" height="6"></rect></g>
<g transform="translate(612.375,934.375) scale(3.9483333333333)"><rect width="6" height="6"></rect></g>
<g transform="translate(635.375,934.375) scale(3.9483333333333)"><rect width="6" height="6"></rect></g>
<g transform="translate(658.375,934.375) scale(3.9483333333333)"><rect width="6" height="6"></rect></g>
<g transform="translate(681.375,934.375) scale(3.9483333333333)"><rect width="6" height="6"></rect></g>
<g transform="translate(704.375,934.375) scale(3.9483333333333)"><rect width="6" height="6"></rect></g>
<g transform="translate(773.375,934.375) scale(3.9483333333333)"><rect width="6" height="6"></rect></g>
<g transform="translate(865.375,934.375) scale(3.9483333333333)"><rect width="6" height="6"></rect></g>
<g transform="translate(888.375,934.375) scale(3.9483333333333)"><rect width="6" height="6"></rect></g>
<g transform="translate(911.375,934.375) scale(3.9483333333333)"><rect width="6" height="6"></rect></g>
<g transform="translate(934.375,934.375) scale(3.9483333333333)"><rect width="6" height="6"></rect></g>
</g><g fill="#0d6efd" transform="scale(44.322916666667)"><path d="M22.7,0H1.3C0.6,0,0,0.6,0,1.3v25.3C0,27.4,0.6,28,1.3,28h21.3c0.7,0,1.3-0.6,1.3-1.3V1.3C24,0.6,23.4,0,22.7,0 z M23,22c0,0.6-0.5,1-1,1H2c-0.6,0-1-0.5-1-1V2c0-0.6,0.5-1,1-1h20c0.6,0,1,0.5,1,1V22z"></path></g>
<g><g transform="translate(106.375,106.375)" fill="#0d6efd"><g transform="scale(11.5)"><path d="M0,0v14h14V0H0z M12,12H2V2h10V12z"></path></g></g>
<g transform="translate(796.375,106.375)" fill="#0d6efd"><g transform="scale(11.5)"><path d="M0,0v14h14V0H0z M12,12H2V2h10V12z"></path></g></g>
<g transform="translate(106.375,796.375)" fill="#0d6efd"><g transform="scale(11.5)"><path d="M0,0v14h14V0H0z M12,12H2V2h10V12z"></path></g></g>
<g transform="translate(152.375,152.375)" fill="#0d6efd"><g transform="scale(11.5)"><rect width="6" height="6"></rect></g></g>
<g transform="translate(842.375,152.375)" fill="#0d6efd"><g transform="scale(11.5)"><rect width="6" height="6"></rect></g></g>
<g transform="translate(152.375,842.375)" fill="#0d6efd"><g transform="scale(11.5)"><rect width="6" height="6"></rect></g></g></g>
<text fill="#FFFFFF" font-family="Arial, Helvetica, sans-serif" font-size="132.96875px" text-anchor="middle" x="525.625" y="161.94911858974" transform="translate(0,1019.4270833333)">SCAN ME</text></svg>